<?xml version="1.0" encoding="utf-8"?>
<!-- Generator: Adobe Illustrator 26.3.1, SVG Export Plug-In . SVG Version: 6.00 Build 0)  -->
<svg version="1.1" id="Calque_1" xmlns="http://www.w3.org/2000/svg" xmlns:xlink="http://www.w3.org/1999/xlink" x="0px" y="0px"
	 viewBox="0 0 667 700" style="enable-background:new 0 0 667 700;" xml:space="preserve">
<g>
	<path d="M23.7,699.6H31l209.9-74.8c-19.5-74-76.2-132.5-149.6-154.4L2,665.8c-3.2,7.4-2.5,15.9,1.8,22.7
		C8.2,695.3,15.7,699.4,23.7,699.6L23.7,699.6z"/>
	<path d="M286.7,607.9l82-28.9c5.6-2.2,10.1-6.3,12.8-11.7c2.7-5.4,3.3-11.5,1.7-17.3c-11.7-51-37.3-97.9-73.9-135.3
		c-36.6-37.5-82.8-64.1-133.6-77c-5.5-1.8-11.4-1.5-16.7,0.7c-5.3,2.2-9.6,6.2-12.2,11.4L113,422.2c42.2,13.9,80.2,38.3,110.5,70.7
		C253.9,525.3,275.6,564.9,286.7,607.9L286.7,607.9z"/>
	<path d="M325.3,301.5h-14.5c-10.7-0.5-21.2,1.9-30.6,7c-9.4,5.1-17.1,12.7-22.5,22c-3.4,5.7-4.3,12.6-2.5,19
		c1.8,6.4,6.2,11.7,12.1,14.8h9.6c4.4,0.1,8.7-0.9,12.5-3c3.8-2.1,7-5.3,9.2-9h14.5c10.7,0.5,21.2-1.9,30.6-7
		c9.4-5.1,17.1-12.7,22.5-22c3.9-10.2,4.8-21.2,2.6-31.9c-2.1-10.7-7.2-20.5-14.7-28.4l-7.2-12.1h14.5c10.7,0.5,21.2-1.9,30.6-7
		c9.4-5.1,17.1-12.7,22.5-22c3.4-5.7,4.3-12.6,2.5-19c-1.8-6.4-6.2-11.7-12.1-14.8c-5.5-2.6-11.8-3.1-17.6-1.3
		c-5.8,1.8-10.7,5.7-13.8,11H359c-10.7-0.5-21.2,1.9-30.6,7c-9.4,5.1-17.1,12.7-22.5,22c-3.9,10.2-4.8,21.2-2.6,31.9
		c2.1,10.7,7.2,20.5,14.7,28.4L325.3,301.5z"/>
	<path d="M491.7,311.2h14.5l28.9,4.8c11.6,0.1,22.8-4.2,31.4-12.1c7.5-7.9,12.6-17.8,14.7-28.4c2.1-10.7,1.2-21.7-2.6-31.9
		c-1.2-4.8-2-9.6-2.4-14.5h12.1c9.7,4.5,20.5,6.2,31.2,4.9c10.7-1.3,20.7-5.5,29.1-12.2c4.8-4.2,7.7-10.1,8.1-16.4
		c0.5-6.3-1.6-12.6-5.7-17.4c-4.2-4.8-10.1-7.7-16.4-8.1c-6.3-0.5-12.6,1.6-17.4,5.7h-14.5c-9.7-4.5-20.5-6.2-31.2-4.9
		c-10.7,1.3-20.7,5.5-29.1,12.2c-7.5,7.9-12.6,17.8-14.7,28.4c-2.1,10.7-1.2,21.7,2.6,31.9c1.2,4.8,2,9.6,2.4,14.5h-12.1
		c-9.7-4.5-20.5-6.2-31.2-4.9c-10.7,1.3-20.7,5.5-29.1,12.2c-4.8,4.2-7.7,10.1-8.1,16.4c-0.5,6.3,1.6,12.6,5.7,17.4
		c4.2,4.8,10.1,7.7,16.4,8.1C480.7,317.4,486.9,315.3,491.7,311.2L491.7,311.2z"/>
	<path d="M163.6,190.6c-0.7,6.4,1.2,12.8,5.3,17.8c4.1,5,10,8.1,16.4,8.7h2.4c6,0,11.8-2.2,16.3-6.2c4.5-4,7.3-9.5,7.9-15.5
		l12.1-7.2c10-3.4,18.9-9.5,25.7-17.5c6.8-8.1,11.3-17.9,12.9-28.3c-0.4-10.7-3.7-21.2-9.7-30.1c-6-8.9-14.3-16.1-24.1-20.5
		l-12.1-7.2l12.1-7.2c10-3.4,18.9-9.5,25.7-17.5c6.8-8.1,11.3-17.9,12.9-28.3c2.2-6.7,1.3-14.1-2.4-20.2c-3.7-6-9.9-10.1-16.9-11.2
		c-6,0-11.8,2.2-16.3,6.2c-4.5,4-7.3,9.5-7.9,15.5l-12.1,7.2c-10.8,3.2-20.4,9.5-27.7,18c-7.3,8.6-11.9,19.1-13.3,30.2
		c0.4,10.7,3.7,21.2,9.7,30.1c6,8.9,14.3,16.1,24.1,20.5l12.1,7.2l-12.1,7.2c-10.8,3.2-20.4,9.5-27.7,18
		C169.7,168.9,165.1,179.4,163.6,190.6L163.6,190.6z"/>
	<path d="M474.8,477.6l12.1,9.6c11.2,10.8,25.6,17.6,41,19.3h16.9c10.9-5,20.1-13.2,26.1-23.6c6.1-10.4,8.7-22.4,7.7-34.3
		c0.5-4.1,1.3-8.1,2.4-12.1l12.1,7.2c7.4,7.4,16.7,12.7,26.9,15.3c10.2,2.6,20.9,2.3,31-0.8c6.1-2.2,11.1-6.7,13.8-12.6
		c2.7-5.9,3-12.7,0.6-18.7c-2.2-6.1-6.7-11.1-12.6-13.8c-5.9-2.7-12.7-3-18.7-0.6l-12.1-9.6c-7.4-7.4-16.7-12.7-26.9-15.3
		c-10.2-2.6-20.9-2.3-31,0.8c-10.5,4.8-19.4,12.7-25.4,22.6c-6,9.9-8.9,21.4-8.4,32.9c-0.5,4.1-1.3,8.1-2.4,12.1l-12.1-7.2
		c-7.4-7.4-16.7-12.7-26.9-15.3c-10.2-2.6-20.9-2.3-31,0.8c-6.1,2.2-11.1,6.7-13.8,12.6c-2.7,5.9-3,12.7-0.6,18.7
		c2.6,5.7,7.4,10.1,13.2,12.4C462.6,480.2,469.1,480.1,474.8,477.6L474.8,477.6z"/>
	<path d="M409.7,72.4c0,13.3-10.8,24.1-24.1,24.1s-24.1-10.8-24.1-24.1s10.8-24.1,24.1-24.1S409.7,59,409.7,72.4"/>
	<path d="M72,361.9c0,13.3-10.8,24.1-24.1,24.1s-24.1-10.8-24.1-24.1c0-13.3,10.8-24.1,24.1-24.1S72,348.5,72,361.9"/>
	<path d="M530.3,627.2c0,13.3-10.8,24.1-24.1,24.1c-13.3,0-24.1-10.8-24.1-24.1s10.8-24.1,24.1-24.1
		C519.5,603.1,530.3,613.9,530.3,627.2"/>
	<path d="M96.1,217.1c0,13.3-10.8,24.1-24.1,24.1s-24.1-10.8-24.1-24.1c0-13.3,10.8-24.1,24.1-24.1S96.1,203.8,96.1,217.1"/>
	<path d="M650.9,96.5c0,13.3-10.8,24.1-24.1,24.1c-13.3,0-24.1-10.8-24.1-24.1s10.8-24.1,24.1-24.1
		C640.1,72.4,650.9,83.2,650.9,96.5"/>
</g>
</svg>
