<svg width="24" height="24" viewBox="0 0 24 24" fill="none" xmlns="http://www.w3.org/2000/svg">
<path d="M16.2111 11.1056L9.73666 7.86833C8.93878 7.46939 8 8.04958 8 8.94164V15.0584C8 15.9504 8.93878 16.5306 9.73666 16.1317L16.2111 12.8944C16.9482 12.5259 16.9482 11.4741 16.2111 11.1056Z" fill="#7E869E" fill-opacity="0.25"/>
<path d="M9.73666 7.86833L9.46833 8.40498L9.46833 8.40498L9.73666 7.86833ZM16.2111 11.1056L16.4795 10.5689L16.4795 10.5689L16.2111 11.1056ZM16.2111 12.8944L16.4795 13.4311H16.4795L16.2111 12.8944ZM9.73666 16.1317L9.46833 15.595H9.46833L9.73666 16.1317ZM10.005 7.33167L16.4795 10.5689L15.9428 11.6422L9.46833 8.40498L10.005 7.33167ZM16.4795 13.4311L10.005 16.6683L9.46833 15.595L15.9428 12.3578L16.4795 13.4311ZM8.6 8.94164V15.0584H7.4V8.94164H8.6ZM10.005 16.6683C8.80817 17.2667 7.4 16.3964 7.4 15.0584H8.6C8.6 15.5044 9.06939 15.7945 9.46833 15.595L10.005 16.6683ZM16.4795 10.5689C17.6587 11.1586 17.6588 12.8414 16.4795 13.4311L15.9428 12.3578C16.2376 12.2104 16.2376 11.7896 15.9428 11.6422L16.4795 10.5689ZM9.46833 8.40498C9.06939 8.20551 8.6 8.49561 8.6 8.94164H7.4C7.4 7.60355 8.80816 6.73326 10.005 7.33167L9.46833 8.40498Z" fill="white"/>
</svg>
