<svg width="20" height="20" viewBox="0 0 20 20" fill="none" xmlns="http://www.w3.org/2000/svg">
<path fill-rule="evenodd" clip-rule="evenodd" d="M11.7197 2.37975C11.7472 2.4716 11.7582 2.58141 11.7801 2.80104C11.8216 3.21599 11.8424 3.42347 11.8947 3.55447C12.1032 4.07665 12.7011 4.32431 13.2178 4.10253C13.3475 4.04689 13.5088 3.91485 13.8316 3.65078L13.8316 3.65077C14.0024 3.51101 14.0878 3.44113 14.1722 3.39563C14.4998 3.21898 14.8984 3.23886 15.2067 3.44723C15.2862 3.5009 15.3642 3.57894 15.5203 3.735L16.2648 4.47956C16.4209 4.63563 16.4989 4.71367 16.5526 4.79311C16.761 5.10148 16.7808 5.50005 16.6042 5.82762C16.5587 5.91201 16.4888 5.99743 16.349 6.16825C16.085 6.49102 15.9529 6.65241 15.8973 6.78204C15.6755 7.29872 15.9232 7.89662 16.4453 8.10515C16.5763 8.15747 16.7838 8.17822 17.1988 8.21971L17.1988 8.21972C17.4184 8.24168 17.5283 8.25266 17.6201 8.28016C17.9766 8.38688 18.2444 8.68276 18.3151 9.04814C18.3334 9.14228 18.3334 9.25264 18.3334 9.47338V10.5264C18.3334 10.747 18.3334 10.8574 18.3152 10.9515C18.2445 11.3169 17.9766 11.6128 17.62 11.7195C17.5282 11.747 17.4184 11.758 17.1989 11.78C16.7841 11.8214 16.5767 11.8422 16.4458 11.8944C15.9235 12.1029 15.6757 12.701 15.8977 13.2178C15.9533 13.3473 16.0852 13.5086 16.3492 13.8312L16.3492 13.8312L16.3492 13.8312C16.4889 14.0019 16.5587 14.0872 16.6042 14.1716C16.7809 14.4992 16.761 14.8979 16.5526 15.2063C16.4989 15.2857 16.4209 15.3637 16.265 15.5196L15.5203 16.2643C15.3642 16.4204 15.2862 16.4984 15.2068 16.5521C14.8984 16.7604 14.4998 16.7803 14.1722 16.6037C14.0879 16.5582 14.0024 16.4883 13.8316 16.3485L13.8316 16.3485L13.8316 16.3485C13.5089 16.0844 13.3475 15.9524 13.2179 15.8968C12.7012 15.675 12.1033 15.9227 11.8947 16.4448C11.8424 16.5758 11.8217 16.7834 11.7802 17.1984C11.7582 17.4182 11.7472 17.5281 11.7197 17.62C11.6129 17.9765 11.3171 18.2442 10.9518 18.3149C10.8576 18.3332 10.7472 18.3332 10.5264 18.3332H9.47355C9.25282 18.3332 9.14246 18.3332 9.04833 18.315C8.68295 18.2442 8.38706 17.9765 8.28034 17.6199C8.25285 17.5281 8.24186 17.4183 8.2199 17.1986L8.2199 17.1986C8.1784 16.7836 8.15765 16.5762 8.10533 16.4451C7.8968 15.923 7.29891 15.6753 6.78223 15.8971C6.6526 15.9527 6.49121 16.0848 6.16842 16.3489L6.16842 16.3489C5.99757 16.4887 5.91215 16.5586 5.82776 16.6041C5.50019 16.7807 5.10163 16.7608 4.79327 16.5525C4.71382 16.4988 4.63578 16.4207 4.4797 16.2647L4.47969 16.2647L3.73516 15.5201C3.57908 15.364 3.50105 15.286 3.44737 15.2066C3.239 14.8982 3.21913 14.4996 3.39577 14.1721C3.44128 14.0877 3.51116 14.0023 3.65093 13.8314L3.65094 13.8314L3.65095 13.8314C3.91503 13.5086 4.04707 13.3473 4.10271 13.2176C4.32449 12.701 4.07683 12.103 3.55465 11.8945C3.42365 11.8422 3.21617 11.8215 2.80121 11.78L2.8012 11.78C2.58159 11.758 2.47178 11.747 2.37993 11.7195C2.0234 11.6128 1.75562 11.3169 1.6849 10.9515C1.66669 10.8574 1.66669 10.747 1.66669 10.5263L1.66669 9.47346C1.66669 9.25265 1.66669 9.14224 1.68492 9.04807C1.75565 8.68275 2.02338 8.38691 2.37985 8.28018C2.47174 8.25266 2.5816 8.24168 2.80132 8.21971L2.80132 8.21971C3.21646 8.17819 3.42402 8.15744 3.55508 8.10508C4.07714 7.89652 4.32475 7.29874 4.10307 6.78212C4.04742 6.65243 3.91531 6.49096 3.65109 6.16802L3.65108 6.16802C3.51121 5.99707 3.44128 5.91159 3.39575 5.82714C3.21919 5.49962 3.23906 5.10116 3.44734 4.79283C3.50104 4.71333 3.57913 4.63525 3.7353 4.47908L4.47973 3.73464C4.63582 3.57856 4.71386 3.50052 4.79331 3.44684C5.10167 3.23848 5.50023 3.2186 5.8278 3.39524C5.91219 3.44075 5.99763 3.51066 6.16852 3.65047C6.49122 3.9145 6.65258 4.04652 6.78214 4.10215C7.29889 4.32404 7.89692 4.07632 8.10542 3.55403C8.1577 3.42308 8.17843 3.2157 8.21991 2.80093C8.24186 2.5814 8.25284 2.47164 8.28031 2.37983C8.38702 2.02323 8.68297 1.7554 9.04842 1.6847C9.14251 1.6665 9.25282 1.6665 9.47343 1.6665H10.5265C10.7472 1.6665 10.8576 1.6665 10.9517 1.68472C11.3171 1.75543 11.613 2.02321 11.7197 2.37975ZM10 13.3332C11.841 13.3332 13.3334 11.8408 13.3334 9.99984C13.3334 8.15889 11.841 6.6665 10 6.6665C8.15907 6.6665 6.66669 8.15889 6.66669 9.99984C6.66669 11.8408 8.15907 13.3332 10 13.3332Z" fill="white"/>
</svg>
