<svg width="102" height="78" viewBox="0 0 102 78" fill="none" xmlns="http://www.w3.org/2000/svg">
<circle cx="52.2363" cy="25.3181" r="17.0652" stroke="white" stroke-opacity="0.96" stroke-width="4.9"/>
<rect x="16.8101" width="4.54321" height="45.4321" rx="2.27161" fill="white" fill-opacity="0.96"/>
<path d="M0 16.7479C0 15.4934 1.01703 14.4763 2.27161 14.4763C3.52618 14.4763 4.54321 15.4934 4.54321 16.7479V33.8882C4.54321 35.1428 3.52618 36.1598 2.27161 36.1598C1.01703 36.1598 0 35.1428 0 33.8882V16.7479Z" fill="white" fill-opacity="0.96"/>
<rect x="79.8574" y="0.567871" width="4.54321" height="45.4321" rx="2.27161" fill="white" fill-opacity="0.96"/>
<path d="M51.075 23.0494L55.7151 25.8734L51.0157 28.5975L51.075 23.0494Z" stroke="white" stroke-opacity="0.96" stroke-width="3"/>
<path d="M96.667 16.7479C96.667 15.4934 97.684 14.4763 98.9386 14.4763C100.193 14.4763 101.21 15.4934 101.21 16.7479V33.8882C101.21 35.1428 100.193 36.1598 98.9386 36.1598C97.684 36.1598 96.667 35.1428 96.667 33.8882V16.7479Z" fill="white" fill-opacity="0.96"/>
<path d="M41.6865 74H40.3594V62.4072H40.2803L34.8838 68.9639L29.4873 62.4072H29.4082V74H28.0811V60.5H29.5576L34.8838 66.96L40.21 60.5H41.6865V74ZM49.1045 73.0859C50.2939 73.0859 51.2988 72.667 52.1191 71.8291C52.9395 70.9854 53.3496 69.9688 53.3496 68.7793C53.3496 67.5898 52.9395 66.5791 52.1191 65.7471C51.2988 64.915 50.2939 64.499 49.1045 64.499C47.9385 64.499 46.9395 64.918 46.1074 65.7559C45.2754 66.5938 44.8594 67.6016 44.8594 68.7793C44.8594 69.9688 45.2725 70.9854 46.0986 71.8291C46.9248 72.667 47.9268 73.0859 49.1045 73.0859ZM53.0684 72.6904C51.9727 73.7686 50.6514 74.3076 49.1045 74.3076C47.5576 74.3076 46.2334 73.7686 45.1318 72.6904C44.0361 71.6064 43.4883 70.3027 43.4883 68.7793C43.4883 67.2559 44.0391 65.958 45.1406 64.8857C46.248 63.8076 47.5693 63.2686 49.1045 63.2686C50.6514 63.2686 51.9727 63.8076 53.0684 64.8857C54.1699 65.958 54.7207 67.2559 54.7207 68.7793C54.7207 70.3027 54.1699 71.6064 53.0684 72.6904ZM63.8789 64.8242L57.2871 72.7256V72.7607H63.8789V74H55.582V72.7607L62.165 64.8594V64.8242H55.582V63.5762H63.8789V64.8242ZM76.0957 68.7793C76.0957 68.9961 76.0752 69.207 76.0342 69.4121H66.3047C66.4629 70.4551 66.9346 71.3281 67.7197 72.0312C68.5107 72.7344 69.4424 73.0859 70.5146 73.0859C71.3174 73.0859 72.0498 72.8809 72.7119 72.4707C73.3799 72.0605 73.9014 71.5156 74.2764 70.8359L75.2783 71.5303C74.7744 72.3564 74.1006 73.0273 73.2568 73.543C72.4131 74.0527 71.499 74.3076 70.5146 74.3076C68.9795 74.3076 67.667 73.7686 66.5771 72.6904C65.4932 71.6064 64.9512 70.3027 64.9512 68.7793C64.9512 67.2559 65.4932 65.958 66.5771 64.8857C67.667 63.8076 68.9795 63.2686 70.5146 63.2686C72.0498 63.2686 73.3623 63.8076 74.4521 64.8857C75.5479 65.958 76.0957 67.2559 76.0957 68.7793ZM66.3047 68.1641H74.7422C74.584 67.1211 74.1064 66.251 73.3096 65.5537C72.5127 64.8506 71.5781 64.499 70.5059 64.499C69.4395 64.499 68.5107 64.8506 67.7197 65.5537C66.9346 66.251 66.4629 67.1211 66.3047 68.1641Z" fill="white"/>
</svg>
